<?xml version="1.0" encoding="UTF-8"?>
<svg width="84px" height="119px" viewBox="0 0 84 119" version="1.1" xmlns="http://www.w3.org/2000/svg" xmlns:xlink="http://www.w3.org/1999/xlink">
    <!-- Generator: Sketch 52.6 (67491) - http://www.bohemiancoding.com/sketch -->
    <title>foot</title>
    <desc>Created with Sketch.</desc>
    <g id="Page-1" stroke="none" stroke-width="1" fill="none" fill-rule="evenodd" fill-opacity="0.4">
        <g id="samoerai-with-svg-layers" transform="translate(-418.000000, -452.000000)" fill="#EBEBEB" fill-rule="nonzero" stroke="#EBEBEB" stroke-width="2">
            <path d="M420,567.350721 C452.95091,572.789472 478.262021,569.854242 495.933333,558.545031 C510.999176,538.548817 488.509896,542.058572 479.737455,542.058572 C465.449755,538.548817 465.449755,536.936755 460.416392,528.776672 C464.801628,526.755074 465.920256,524.14656 463.772275,520.951131 C462.347674,504.11187 467.6694,487.350865 479.737455,470.668116 C484.695536,463.902935 487.174577,458.013563 487.174577,453 L473.809653,453 C462.459765,464.451375 451.762222,469.138875 441.717023,467.062498 C438.626043,467.062498 438.626043,478.489744 438.626043,484.255212 C441.717023,494.267992 448.618454,508.629816 434.172371,523.570731 C423.384243,526.143378 428.506877,539.269433 425.358873,548.993958 C425.358873,555.36134 423.572582,561.480261 420,567.350721 Z" id="foot"></path>
        </g>
    </g>
</svg>