<?xml version="1.0" encoding="UTF-8"?>
<svg width="194px" height="147px" viewBox="0 0 194 147" version="1.1" xmlns="http://www.w3.org/2000/svg" xmlns:xlink="http://www.w3.org/1999/xlink">
    <!-- Generator: Sketch 52.6 (67491) - http://www.bohemiancoding.com/sketch -->
    <title>head</title>
    <desc>Created with Sketch.</desc>
    <g id="Page-1" stroke="none" stroke-width="1" fill="none" fill-rule="evenodd" fill-opacity="0.4">
        <g id="samoerai-with-svg-layers" transform="translate(-326.000000, -169.000000)" fill="#EBEBEB" fill-rule="nonzero" stroke="#EBEBEB" stroke-width="2">
            <path d="M399.468903,208.044926 C410.7734,211.351436 404.588933,204.1886 426.623541,206.61561 C443.167584,176.477225 434.114409,173.633209 432.361456,171.21107 C431.19282,169.59631 433.933215,169.59631 440.582639,171.21107 C446.996949,183.851141 449.305215,192.008079 447.507438,195.681884 C444.810773,201.192591 440.582639,182.744972 432.361456,209.042621 C464.003576,221.710623 464.003576,248.131035 458.097503,255.462731 C452.19143,262.794427 501.728725,230.235851 485.450607,227.127796 C482.425713,224.286703 515.343685,216.359702 518,230.235851 C507.85575,228.163814 487.888251,238.33498 458.097503,260.749347 L458.097503,274.436478 L453.666726,274.436478 C446.46646,298.453263 428.778224,311.974437 400.602016,315 C374.68282,312.864309 365.319399,300.040092 372.511752,276.527351 C359.618961,271.187473 350.212849,270.490516 344.293414,274.436478 C335.414263,280.355422 299.218181,189.765863 369.016601,189.765863 C387.223652,191.505984 381.96993,202.926562 399.468903,208.044926 Z" id="head"></path>
        </g>
    </g>
</svg>