<?xml version="1.0" encoding="UTF-8"?>
<svg width="324px" height="181px" viewBox="0 0 324 181" version="1.1" xmlns="http://www.w3.org/2000/svg" xmlns:xlink="http://www.w3.org/1999/xlink">
    <!-- Generator: Sketch 52.6 (67491) - http://www.bohemiancoding.com/sketch -->
    <title>Combined Shape</title>
    <desc>Created with Sketch.</desc>
    <g id="Page-1" stroke="none" stroke-width="1" fill="none" fill-rule="evenodd" fill-opacity="0.4">
        <g id="samoerai-with-svg-layers" transform="translate(-195.000000, -173.000000)" fill="#EBEBEB" fill-rule="nonzero" stroke="#EBEBEB" stroke-width="2">
            <path d="M353.917797,188.995025 C325.547252,199.427025 319.04131,224.126895 334.399972,263.094633 C339.674197,264.163731 337.758519,264.163731 328.652938,263.094633 C314.994566,261.490987 321.622376,270.237352 309.81158,270.237352 C298.000784,270.237352 304.235617,271.85076 297.048647,275.228862 C289.861677,278.606964 291.163777,273.294335 282.806676,275.228862 C274.449575,277.163389 273.469089,283.805395 265.230272,287 C261.797105,280.357018 239.053682,255.621034 197,212.79205 C203.377556,209.433144 209.963657,205.034421 216.758303,199.595882 C226.950271,191.438073 227.032386,201.910091 235.17638,192.910929 C243.320375,183.911767 248.172948,192.77233 254.889715,186.445587 C261.606483,180.118845 259.625167,182.930791 270.380021,180.118845 C276.434985,180.118845 279.893568,182.930791 285.053093,178.55912 C288.492776,175.644672 293.283112,174.631535 299.424101,175.519707 C301.347925,177.545982 304.810418,177.545982 309.81158,175.519707 C314.812741,173.493431 319.274293,173.493431 323.196236,175.519707 C327.404277,178.536346 332.52307,179.549483 338.552618,178.55912 C344.582165,177.568757 348.447736,178.995739 350.14933,182.840066 C353.091521,184.752819 354.347677,186.804471 353.917797,188.995025 Z M459.868374,269.633803 C478.957815,266.122066 490.59856,266.122066 494.790608,269.633803 C494.790608,276.144013 496.321616,283.532158 499.383634,291.798237 L508.983685,312.331387 L504.468771,312.331387 C505.044201,318.574907 508.042427,325.197374 513.463448,332.198786 C513.463448,332.198786 510.465222,332.198786 504.468771,332.198786 L517,345.84862 L488.434187,352 C479.016399,347.89908 471.379582,345.84862 465.523733,345.84862 C465.523733,342.447842 470.276891,312.331387 459.868374,305.895798 C465.523733,291.798237 465.523733,285.42494 455,275.662544 C458.245583,275.662544 459.868374,275.662544 459.868374,275.662544 L459.868374,269.633803 Z" id="Combined-Shape"></path>
        </g>
    </g>
</svg>