<?xml version="1.0" encoding="UTF-8"?>
<svg width="58px" height="251px" viewBox="0 0 58 251" version="1.1" xmlns="http://www.w3.org/2000/svg" xmlns:xlink="http://www.w3.org/1999/xlink">
    <!-- Generator: Sketch 52.6 (67491) - http://www.bohemiancoding.com/sketch -->
    <title>arm-r</title>
    <desc>Created with Sketch.</desc>
    <g id="Page-1" stroke="none" stroke-width="1" fill="none" fill-rule="evenodd" fill-opacity="0.4">
        <g id="samoerai-with-svg-layers" transform="translate(-409.000000, -274.000000)" fill="#EBEBEB" fill-rule="nonzero" stroke="#EBEBEB" stroke-width="2">
            <path d="M411,314.525221 C423.229896,310.166456 444.106779,306.202522 455.554133,276 C463.715203,281.565406 465.072129,291.51694 459.624911,305.854603 C469.315286,312.34649 467.95836,338.392224 455.554133,383.991803 C459.624911,425.484111 438.5,455.688588 438.5,479.468285 C435.731047,485.32232 440.27213,494.808008 443.017856,501.09401 C445.763581,507.380013 436.841436,524 429.035535,524 C421.229634,524 411,512.293884 411,501.09401 C411,493.627427 411,488.131084 411,484.604981 C416.543491,473.088462 416.543491,455.015553 411,430.386255 C411,395.193632 417.262284,395.193632 417.262284,369.070366 C406.613083,339.694641 417.262284,324.71652 411,314.525221 Z" id="arm-r"></path>
        </g>
    </g>
</svg>