<?xml version="1.0" encoding="UTF-8"?>
<svg width="161px" height="245px" viewBox="0 0 161 245" version="1.1" xmlns="http://www.w3.org/2000/svg" xmlns:xlink="http://www.w3.org/1999/xlink">
    <!-- Generator: Sketch 52.6 (67491) - http://www.bohemiancoding.com/sketch -->
    <title>flag</title>
    <desc>Created with Sketch.</desc>
    <g id="Page-1" stroke="none" stroke-width="1" fill="none" fill-rule="evenodd" fill-opacity="0.4">
        <g id="samoerai-with-svg-layers" transform="translate(-391.000000, -22.000000)" fill="#EBEBEB" fill-rule="nonzero" stroke="#EBEBEB" stroke-width="2">
            <path d="M393,157.76725 C397.479858,149.979572 399.719788,145.580403 399.719788,144.569743 C399.719788,143.559084 398.133769,142.3586 394.961732,140.968292 C394.961732,135.883086 396.54775,133.340483 399.719788,133.340483 C401.427456,134.765956 402.717992,136.212592 403.591395,137.680393 L413.099679,117.889505 C413.224265,113.257533 413.946012,110.941547 415.264922,110.941547 C416.583832,110.941547 415.110984,110.002845 410.846378,108.12544 C409.794251,104.098431 410.545351,101.1599 413.099679,99.3098459 C415.487676,99.3098459 417.201867,100.321808 418.242254,102.345732 L420.134518,99.3098459 L415.264922,96.0375753 C416.086143,90.6222117 417.709341,87.3844547 420.134518,86.3243041 C420.901599,88.9030487 422.127885,90.192421 423.813376,90.192421 L427.238824,82.1240762 L416.693415,76.8171371 C416.534911,73.3859742 417.681945,71.6703927 420.134518,71.6703927 C421.632805,72.5475566 424.797993,74.2631381 429.630083,76.8171371 L431.402001,73.513609 C420.12082,68.0370328 420.12082,58.934911 431.402001,46.2072437 C440.451406,37.1581946 440.451406,44.0905242 448.074275,25 C457.092371,41.5957842 480.325929,66.3751752 451.05552,82.1240762 C449.068024,86.8706593 450.129283,86.8706593 454.239299,82.1240762 C459.248156,82.3454836 461.752585,83.7455595 461.752585,86.3243041 C461.752585,88.9030487 461.172382,90.192421 460.011976,90.192421 C469.428941,92.118665 476.691099,95.1578067 481.798451,99.3098459 C483.118339,98.0488007 480.561399,94.7018948 481.798451,94.5313541 C485.135023,94.0713722 492.109039,96.7877556 490.945698,98.0488007 C490.170137,98.8894975 489.435996,100.321808 488.743275,102.345732 C499.273682,105.319102 506.402449,108.184374 510.129576,110.941547 C512.301668,108.12544 510.805664,105.07588 512.301668,105.07588 C513.797672,105.07588 517.809193,105.756707 519.193658,109.424581 C519.193658,110.435891 518.441253,112.040769 516.936443,114.239214 L522.872516,116.168389 C523.292585,112.683827 523.999656,110.941547 524.99373,110.941547 C526.484842,110.941547 530.794782,112.182079 532.865118,114.239214 C532.865118,116.672741 532.175006,118.435209 530.794782,119.526617 L549.758515,127.102656 C552.149121,129.973138 551.08721,131.408378 546.57278,131.408378 C540.046068,129.413107 533.898656,126.881574 528.130545,123.81378 L520.485172,142.342646 C518.119353,145.994565 516.936443,150.389176 516.936443,155.526478 C516.936443,160.66378 514.076522,166.649593 508.356679,173.483917 C504.906119,176.183784 503.180838,182.383842 503.180838,192.084089 C503.180838,201.784336 499.95564,208.089236 493.505244,210.99879 C491.013209,214.94733 489.767191,218.94129 489.767191,222.980672 C489.767191,229.092492 476.508624,250.795461 478.960544,265.05963 C481.297011,267.836339 474.980821,264.463784 460.011976,254.941965 C466.902661,234.633049 458.25506,219.079507 434.069173,208.28134 C439.77434,189.858945 443.399385,194.873822 444.787763,196.879186 C451.05552,198.818129 449.479286,183.658236 441.77423,170.712743 C438.959316,167.714953 427.238824,169.059026 434.069173,173.483917 C438.959316,178.319063 434.343131,193.015953 427.238824,205.747528 C423.813376,208.28134 420.134518,202.803461 410.846378,205.747528 C405.010104,210.99879 403.591395,208.28134 396.577103,205.747528 C395.500189,204.159907 403.35266,196.87821 420.134518,183.902436 C426.906488,177.619025 427.427007,173.222461 421.696076,170.712743 C418.242254,170.712743 413.254017,182.532129 408.88856,180.562766 C402.233506,177.560511 402.233506,174.27717 408.88856,170.712743 C408.718967,166.737179 406.953246,163.585705 403.591395,161.258323 C400.229544,158.930941 396.699079,157.76725 393,157.76725 Z" id="flag"></path>
        </g>
    </g>
</svg>