<?xml version="1.0" encoding="UTF-8"?>
<svg width="415px" height="404px" viewBox="0 0 415 404" version="1.1" xmlns="http://www.w3.org/2000/svg" xmlns:xlink="http://www.w3.org/1999/xlink">
    <!-- Generator: Sketch 52.6 (67491) - http://www.bohemiancoding.com/sketch -->
    <title>full-harnas</title>
    <desc>Created with Sketch.</desc>
    <g id="Page-1" stroke="none" stroke-width="1" fill="none" fill-rule="evenodd" fill-opacity="0.4">
        <g id="samoerai-with-svg-layers" transform="translate(-106.000000, -167.000000)" fill="#EBEBEB" fill-rule="nonzero" stroke="#EBEBEB" stroke-width="2">
            <path d="M332.301213,178.790862 C324.960952,175.054492 319.247444,173.787958 315.16069,174.991263 C300.968432,179.170033 300.273112,173.809127 296.665733,174.991263 C285.07096,178.790862 279.892695,179.755154 276.244665,180.434487 C267.094909,178.790862 257.557845,181.795618 256.087449,184.83248 C250.793822,193.676375 242.645721,184.83248 231.188737,195.193869 C221.020713,196.591097 211.641309,203.514659 195.900172,212.99997 C206.185789,221.153236 229.322238,245.853241 265.30952,287.099984 C262.126373,296.85744 258.217799,303.118077 253.583799,305.881896 C246.632799,310.027625 249.437434,306.172293 245.645802,311.975335 C243.118047,315.84403 237.229941,323.91158 227.981486,336.177983 C225.142322,339.920872 226.211406,343.977298 231.188737,348.347262 C232.341211,350.877069 227.94826,350.877069 218.009883,348.347262 C212.655994,347.349288 207.045747,349.379457 201.17914,354.437768 C192.379231,362.025234 180.056426,358.973625 177.249836,363.568149 C174.443246,368.162672 166.224785,360.67005 152.115613,376.628172 C140.962221,380.592037 135.385524,383.905687 135.385524,386.569122 L122.948384,374.785083 C118.329368,383.657986 117.174614,392.833996 119.484122,402.313114 C123.834727,404.623901 126.010029,407.365232 126.010029,410.537106 C122.080283,412.257974 118.911142,416.034433 116.502609,421.866483 C108.428126,428.085728 105.499383,438.903082 107.716381,454.318545 C109.276683,448.242705 112.205426,444.481564 116.502609,443.035122 C119.484122,437.247724 120.864941,434.313447 126.010029,431.524858 C127.392802,427.29993 129.490904,422.956692 135.385524,420.661875 C141.280144,418.367058 141.280144,414.333772 146.01773,414.333772 C150.755316,414.333772 147.719079,402.26227 208.614844,388.523676 C211.268335,388.523676 212.997372,389.560435 213.801953,391.633951 C229.967858,387.617287 240.106566,388.392982 244.218076,393.961035 C258.279038,390.336129 267.158755,391.868941 270.857225,398.559469 C282.620406,397.583658 289.32938,399.968756 290.984147,405.714763 C301.46977,405.714763 306.712581,408.587766 306.712581,414.333772 C318.251,420.032845 324.02021,425.08203 324.02021,429.481327 C326.408547,430.843681 330.708988,431.524858 336.921532,431.524858 C332.026287,440.629165 330.486181,449.546394 332.301213,458.276542 C335.381426,462.342746 336.921532,465.786439 336.921532,468.60762 C344.694378,474.01206 350.15902,476.71428 353.315456,476.71428 C353.315456,479.352294 349.015992,482.868667 340.417065,487.2634 C335.556349,496.970664 333.758581,504.291199 335.023762,509.225008 C336.288942,514.158816 335.381426,512.63676 332.301213,504.65884 C331.376107,508.135776 331.376107,511.979375 332.301213,516.189637 C333.226319,520.399898 331.109325,516.556299 325.950229,504.65884 C324.832935,509.093335 324.832935,512.123759 325.950229,513.75011 C327.067523,515.376461 325.772048,513.142591 322.063806,507.0485 C320.759536,509.889889 320.759536,512.123759 322.063806,513.75011 C323.368075,515.376461 321.976833,513.868094 317.890079,509.225008 C314.183791,506.322998 310.877513,505.597495 307.971247,507.0485 C307.971247,508.499505 307.971247,510.733375 307.971247,513.75011 C306.68587,516.212125 304.971492,517.443133 302.828112,517.443133 C303.804034,519.724588 303.273075,521.950636 301.235236,524.121277 L285.07096,551.117402 L279.796878,559.563347 C283.817832,570.837644 293.209288,571.549784 307.971247,561.699767 C311.091851,571.093493 331.20835,567.566038 368.320743,551.117402 L423.399089,524.121277 L426.20861,529.819698 C425.433997,550.606357 423.162926,563.113291 419.395399,567.3405 C466.237694,574.178997 493.456662,567.829383 501.052305,548.291658 C501.890113,543.730704 495.355736,541.450228 481.449175,541.450228 C469.575894,539.799758 462.750955,535.922915 460.974361,529.819698 C463.898217,526.255414 465.003784,523.092666 464.291062,520.331455 C463.221978,516.189637 461.846045,489.713683 481.449175,468.60762 C484.230357,479.688645 505.789891,468.60762 510.324214,468.60762 C514.858538,468.60762 527.90058,444.762835 513.20605,425.957457 C520.964564,420.990405 515.549761,405.967026 496.961642,380.887322 L510.324214,369.536434 C510.324214,367.194358 508.976296,365.204929 506.280458,363.568149 C502.236702,361.112978 508.858377,348.828323 511.886797,346.825857 C513.905743,345.490881 515.725662,344.938769 517.346552,345.169521 L503.961504,331.99901 L513.20605,331.99901 C504.731557,318.649894 501.650041,311.975335 503.961504,311.975335 C506.272966,311.975335 507.773983,311.975335 508.464556,311.975335 C497.628435,290.720653 493.002253,276.114129 494.586009,268.155763 C491.352046,265.73351 479.465083,265.73351 458.92512,268.155763 L458.92512,259.750885 C488.949376,235.448831 508.423186,225.439112 517.346552,229.721728 C518.757665,228.308856 509.518004,216.87388 499.249325,223.297804 C494.586009,222.060929 486.975382,223.099317 485.27501,225.22987 C492.482369,229.91337 483.699072,239.802172 458.92512,254.896275 C465.938337,234.235423 457.471335,218.333033 433.524115,207.189105 C434.850535,202.91757 436.468168,199.384901 438.377014,196.591097 C439.153582,193.728849 441.024642,193.263106 443.990193,195.193869 C448.438521,198.090012 452.199859,189.208962 441.052655,169.830612 C429.411953,164.541875 429.411953,172.106852 435.232304,174.991263 C435.232304,178.158247 433.524115,196.591097 426.20861,204.841488 C423.399089,204.841488 412.363289,201.265797 405.477763,207.189105 C396.518565,207.189105 389.171789,202.684862 383.437434,193.676375 C377.766272,188.273891 368.327909,186.688932 355.122345,188.921498 C351.3255,179.634675 343.718457,176.257796 332.301213,178.790862 Z" id="full-harnas"></path>
        </g>
    </g>
</svg>